<?xml version="1.0" standalone="no"?>
<!DOCTYPE svg PUBLIC "-//W3C//DTD SVG 20010904//EN"
 "http://www.w3.org/TR/2001/REC-SVG-20010904/DTD/svg10.dtd">
<svg version="1.0" xmlns="http://www.w3.org/2000/svg"
 width="700.000000pt" height="700.000000pt" viewBox="0 0 700.000000 700.000000"
 preserveAspectRatio="xMidYMid meet">
<metadata>
Created by potrace 1.11, written by Peter Selinger 2001-2013
</metadata>
<g transform="translate(0.000000,700.000000) scale(0.100000,-0.100000)"
fill="#000000" stroke="none">
<path d="M31 6673 c17 -32 60 -110 94 -173 34 -63 80 -146 100 -185 21 -38 50
-92 65 -120 15 -27 42 -77 60 -110 44 -82 92 -170 160 -295 31 -58 77 -141
100 -185 98 -182 141 -261 150 -275 6 -8 13 -22 17 -30 4 -8 43 -82 88 -165
45 -82 128 -235 185 -340 56 -104 115 -212 130 -240 15 -27 49 -90 75 -140 26
-49 55 -103 65 -120 9 -16 33 -59 52 -95 33 -62 269 -496 328 -604 15 -28 39
-71 52 -96 14 -25 49 -90 78 -145 29 -55 56 -104 60 -110 4 -5 33 -59 65 -120
32 -60 66 -123 75 -140 10 -16 37 -66 60 -110 24 -44 64 -118 90 -165 26 -47
66 -121 90 -165 23 -44 55 -102 70 -130 15 -27 43 -79 62 -115 20 -36 151
-279 293 -540 142 -261 273 -504 292 -540 20 -36 46 -83 58 -105 12 -22 44
-80 70 -130 26 -49 56 -103 65 -120 10 -16 41 -75 70 -130 29 -55 56 -104 60
-110 4 -5 45 -80 90 -165 101 -189 99 -187 115 -158 6 13 42 79 80 148 37 69
86 159 108 200 22 41 49 91 60 110 11 19 38 69 60 110 22 41 79 147 127 235
48 88 90 167 94 175 3 8 18 35 32 60 14 25 46 83 71 130 25 47 56 103 68 125
22 38 46 82 123 225 19 36 91 169 159 295 69 127 141 259 160 295 20 36 50 92
68 125 18 33 46 85 62 115 17 30 57 105 90 165 66 120 114 210 176 325 22 41
55 101 73 133 19 32 34 60 34 62 0 2 35 69 79 148 43 78 102 188 131 242 29
55 56 105 60 110 4 6 33 60 65 120 32 61 61 115 65 120 4 6 29 51 55 100 46
87 70 130 132 245 17 30 46 84 65 120 20 36 64 117 98 180 35 63 78 144 97
180 20 36 48 88 63 115 15 28 44 82 65 120 46 85 88 164 125 230 15 28 44 82
65 120 95 176 236 437 265 490 32 57 77 141 128 235 19 36 47 88 62 115 15 28
60 111 100 185 40 74 83 154 97 178 l24 42 -3500 0 -3501 0 31 -57z m4331
-1561 c8 -2 -29 -76 -132 -262 -31 -58 -75 -139 -97 -180 -22 -41 -54 -101
-72 -132 -17 -32 -45 -84 -62 -115 -27 -51 -281 -517 -406 -748 -24 -44 -54
-99 -65 -122 -12 -24 -24 -43 -27 -43 -4 0 -31 46 -61 103 -104 192 -137 254
-177 328 -23 41 -57 103 -76 139 -19 36 -45 85 -59 110 -14 25 -41 74 -60 110
-20 36 -79 146 -133 245 -109 201 -141 260 -227 420 -32 61 -63 118 -69 127
-5 10 -9 19 -9 21 0 3 1719 2 1732 -1z"/>
</g>
</svg>
